Patient4_TMGait_0pt7_02_left_26_EMG.mot
version=1
nRows=40
nColumns=33
inDegrees=no
endheader
time	1LAddLong	2LGlutMax	3LGlutMed	4LIliopsoas	5LSemiMemb	6LBicFemLong	7LRecFem	8LVastMed	9LVastLat	10LGasMed	11LTibAnt	12lTibPost	13LPeroneusLong	14LSol	15LExtDigLong	16LFlexDigLong	17RAddLong	18RGlutMax	19RGlutMed	20RIliopsoas	21RSemiMemb	22RBicFemLong	23RRecFem	24RVastMed	25RVastLat	26RGasMed	27RTibAnt	28RTibPost	29RPeroneusLong	30RSol	31RExtDigLong	32RFlexDigLong
29.6	0.035095	-0.084991	-0.038757	-0.016632	-0.014191	-0.080566	0.1532	0.01709	0.23163	0.002441	0.006866	-0.007324	0.032806	-0.032196	-0.2214	-0.005493	0.074921	-0.20569	0.47562	-0.097351	0.13153	-0.042572	0.094757	-0.22278	-0.008698	-0.060425	0.14999	0.080109	-3.2919	0.45013	-0.00946	-0.006256
29.601	0.026703	-0.11734	-0.046539	-0.015259	-0.015564	-0.061951	0.13626	0.010071	0.2359	0.0383	-0.002441	-0.00885	0.057831	-0.12207	-0.62897	-0.007782	0.0177	-0.18265	0.28488	-0.055389	-0.18784	0.006866	0.008698	-0.062714	0.065002	0.022736	0.009918	0.3569	-0.077515	-0.038605	-0.004425	-0.010223
29.602	0.030823	-0.14236	-0.040741	-0.011292	-0.013123	-0.087433	0.10803	0.001373	0.22675	0.025177	-0.043945	-0.005646	0.10193	-0.18417	-0.69275	-0.013275	-0.010071	-0.19775	0.089569	-0.10239	-0.28763	-0.10773	-0.033264	-0.007782	0.064545	-0.023956	-0.090332	0.24353	-0.50949	-0.51819	-0.006104	-0.009308
29.603	0.019073	-0.20248	-0.02655	0.021515	-0.013885	-0.10361	0.096893	0.009308	0.23132	0.013428	-0.028381	0	0.046997	-0.18829	-0.5481	-0.002594	-0.024109	-0.20966	0.030823	-0.15808	-0.3215	-0.096283	-0.015106	0.061646	0.072479	-0.046387	-0.016174	0.00412	-1.0838	-0.7663	-0.004425	-0.002899
29.604	0.018616	-0.19241	-0.057831	0.054321	-0.012207	-0.10132	0.069275	0.013275	0.24674	0.010376	0.017548	-0.002594	-0.021057	-0.20752	-0.17914	-0.007629	-0.064087	-0.20569	0.007019	-0.088348	-0.59418	0.094452	0.005341	0.04776	-0.02594	-0.045166	-0.07843	-0.34058	0.44876	-0.58014	-0.002594	0.005035
29.605	0.011292	-0.19867	-0.063324	0.051117	-0.017242	-0.093994	0.059967	0.009613	0.2298	-0.014801	0.03067	-0.004883	-0.05661	-0.20279	-0.005798	-0.001526	-0.036926	-0.22842	-0.29877	0.030823	-0.34027	0.004425	0.087738	0.23086	0.002289	-0.007324	-0.15778	-0.005341	1.5851	0.23712	-0.000458	-0.00412
29.606	0.000458	-0.21942	-0.089874	-0.000916	-0.016479	-0.09201	0.04715	0.009003	0.23651	-0.023041	0.035095	-0.000153	-0.044556	-0.10437	1.042	0.003204	-0.014801	-0.16129	0.49194	0.14191	-0.040894	0.005493	0.21866	0.13275	-0.006866	0.001526	-0.17563	-0.04425	2.0474	0.74158	-0.005188	-0.005493
29.607	0.003967	-0.23239	-0.091553	-0.033722	-0.015106	-0.12238	0.046234	0.00824	0.233	-0.028992	0.053711	0.002594	0.003204	-0.10193	-0.046844	0.006409	-0.009003	-0.080872	0.99945	0.23911	0.094299	0.13107	0.22614	0.049438	-0.032959	-0.023346	0.004883	0.17227	0.51331	1.2529	-0.002441	-0.003357
29.608	0.009155	-0.24414	-0.093689	-0.053558	-0.007629	-0.11337	0.057983	0.012512	0.22858	-0.007782	0.089874	0.006104	-0.024109	-0.02655	0.53741	0.007782	0.018921	-0.14206	0.16968	0.11063	0.082245	0.11292	0.23956	-0.10986	-0.080261	-0.037689	0.072937	0.049438	0.26993	0.41779	-0.000458	-0.011749
29.609	0.010986	-0.23377	-0.027618	-0.019836	-0.011444	-0.11017	0.075226	0.009308	0.22232	0.021973	0.15045	0.002899	-0.009155	0.06134	-0.1503	0.014648	0.063477	-0.064087	0.2327	0.010681	0.051575	0.087585	0.34637	-0.1831	-0.095367	-0.012665	0.058899	-0.012207	0.80704	-0.12497	-0.001526	0.006561
29.61	0.001984	-0.24338	-0.076904	0.020752	-0.005798	-0.093689	0.060425	0.013885	0.21286	-0.029144	0.038147	0.005646	0.10574	0.061035	0.12344	0.024109	0.093536	-0.033264	0.17654	-0.04837	0.112	0.073547	0.35095	-0.27786	-0.028992	0.019379	-0.025024	-0.011749	0.39764	-0.080566	-0.00061	0.003967
29.611	-0.003815	-0.24109	0.042725	0.011902	-0.001831	-0.10223	0.03418	0.008392	0.19882	-0.066071	-0.24521	0.00351	0.090179	0.024414	0.034027	0.017242	0.050812	0.011749	0.11841	-0.22034	-0.18097	0.14908	0.38788	-0.26367	-0.057983	-0.023956	-0.026093	-0.055695	0.035858	0.39993	0	0.007629
29.612	0.00946	-0.24017	0.1062	0.019379	-0.01297	-0.080719	0.03891	0.010376	0.19547	-0.079956	-0.13168	0.004272	-0.003662	-0.02594	0.04425	0.011292	-0.057983	-0.046082	0.25467	-0.48447	-0.17288	0.17578	0.34622	-0.14694	-0.033722	-0.006866	-0.14236	-0.11749	0.083008	0.13825	-0.000305	0.001526
29.613	0.006866	-0.22385	0.088196	-0.013275	-0.008392	-0.067444	0.001984	0.006561	0.18799	-0.1059	-0.16525	0.005188	0.023651	-0.044708	0.26993	0.025177	-0.052795	-0.030212	0.16113	-0.3122	0.12497	0.063171	0.27802	-0.10437	-0.048218	0.003662	-0.091248	0.11322	-0.006104	-0.21301	-0.00412	-0.001221
29.614	-0.00885	-0.22217	0.041809	0.013123	-0.022583	-0.029907	-0.006104	-0.000153	0.16556	-0.074615	0.19577	0.008087	0.034332	-0.004425	0.12436	0.036163	-0.062561	-0.025177	-0.24628	0.02533	0.24551	0.12482	0.018616	0.079498	0.006104	0.007019	-0.065918	0.10666	0.098572	-0.15305	-0.00061	0.002747
29.615	0.001984	-0.1947	-0.010376	0.029297	-0.035248	-0.05188	-0.002136	0.010986	0.16907	-0.00946	0.29068	0.013275	0.087738	0.074921	-0.1506	0.01358	-0.073395	-0.006256	-0.11643	0.38773	-0.041504	0.046387	0.054321	0.28915	0.054321	0.006866	-0.024872	0.020142	0.14801	0.028076	-0.001831	-0.009308
29.616	0.000305	-0.17853	-0.016327	0.021667	-0.028992	-0.027618	-0.013733	0.017395	0.15656	0.019989	0.31403	0.00824	0.091248	0.070343	-0.30945	0.013733	-0.058289	0.0177	-0.15869	0.36819	-0.026093	0.05249	0.14221	0.15457	0.021973	-0.001831	-0.011749	-0.066071	0.016174	0.022583	-0.00351	-0.007324
29.617	0.001373	-0.15579	-0.010376	0.012207	-0.013123	-0.015411	-0.00412	0.013428	0.15045	0.034637	0.21362	0.014343	-0.006104	0.057373	-0.025635	0.019073	-0.04776	0.029144	0.10803	0.23575	-0.019073	0.046997	0.1181	0.097504	0.002441	-0.007172	0.019073	-0.2002	-0.2594	-0.010529	-0.00412	-0.009155
29.618	-0.002289	-0.13931	0.025635	0.01709	-0.015411	0.004883	-0.011597	0.011139	0.14053	0.037231	-0.089874	0.00885	0.0177	0.038605	0.24841	0.016632	-0.041046	0.030518	0.11627	-0.018005	-0.08728	0.018311	0.10757	0.049591	-0.010986	-0.014954	0.053406	-0.056	-0.37643	-0.048828	-0.003357	-0.001678
29.619	-0.011292	-0.13748	0	0.008545	-0.056458	0.030212	-0.016937	0.012665	0.1416	0.011597	-0.1947	0.007172	0.092316	0.001526	-0.40314	0.01297	-0.02655	-0.013123	0.25711	-0.12589	-0.074158	0.047455	0.13611	0.055695	-0.002441	-0.004883	0.041809	0.07843	0.45837	-0.024872	-0.005341	-0.008392
29.62	-0.012817	-0.09903	-0.023041	0.009308	-0.12466	0.00412	-0.032349	0.004425	0.14938	0.002594	-0.11063	0.010834	0.11719	-0.019226	-0.28015	0.012207	-0.014648	0.031738	-0.24475	-0.005798	-0.040283	0.052643	0.12482	0.028992	0.009918	-0.002441	0.013885	0.14938	0.68314	-0.003052	-0.005493	0.000305
29.621	-0.033112	-0.079041	-0.046539	0.010681	-0.1294	-0.058746	-0.033417	0.009613	0.1503	-0.023499	-0.037079	0.010529	0.088348	-0.050201	-0.062256	0.012665	-0.016327	-0.01709	-0.35904	0.12573	0.005798	0.015564	0.078583	0.024109	-0.092163	0.005035	0.021973	0.032043	0.25299	0.081635	-0.004272	-0.007172
29.622	-0.046997	-0.04715	-0.076447	0.007629	-0.052185	-0.11948	-0.053406	-0.026398	0.18219	-0.022125	0.03067	0.007477	0.073547	-0.13229	-0.076141	0.020752	0.005493	0.019226	-0.23666	0.25284	0.046539	-0.11505	0.074463	-0.032196	-0.18845	0.00473	0.003052	-0.031433	0.12894	0.1828	-0.004272	-0.003967
29.623	0.014343	-0.009308	-0.052948	0.01297	0.079193	-0.096893	-0.046692	0.028992	0.15243	-0.001526	0.044861	0.004272	0.068512	-0.065155	-0.018768	0.013733	0.019073	0.05249	0.43579	0.35278	0.050964	-0.15198	0.15076	-0.11643	-0.17548	-0.000153	-0.020142	-0.050049	0.11749	-0.13351	-0.002594	-0.003204
29.624	0.014648	0.003662	-0.000763	0.006561	0.084686	-0.051575	-0.06134	-0.002594	0.15625	0.02243	-0.022583	0.004425	0.059204	-0.067749	-0.001984	0.03418	0.04364	0.11383	0.47394	0.26825	0.017242	-0.12878	0.14938	-0.11643	-0.17792	-0.041199	0.007324	-0.036926	0.033264	-0.22751	-0.015259	-0.007172
29.625	0.029449	0.014496	0.029297	0.015411	0.04364	-0.03891	-0.061493	0.005493	0.15579	0.037537	-0.057983	-0.000153	0.06958	-0.083313	-0.05661	0.027008	0.043488	0.067902	0.13947	0.1445	-0.003052	-0.10376	0.14496	-0.20554	-0.13947	-0.063171	0.001068	-0.00824	-0.12405	-0.17014	-0.003052	-0.011292
29.626	0.010986	0.023346	0.023956	0.017242	0.019836	-0.059357	-0.068817	0.006866	0.15152	0.019379	-0.032654	0.005798	0.045776	-0.11551	-0.023499	0.027313	0.031433	0.036469	0.051117	0.028381	-0.059509	-0.082855	0.032654	-0.18616	-0.063477	-0.013123	-0.000153	-0.03006	-0.16968	-0.078125	-0.005341	-0.007019
29.627	0.015106	0.046082	0.00946	0.011444	0.006714	-0.053406	-0.077362	0.006866	0.13992	0.024872	-0.019531	0.002747	0.033417	-0.15411	0.16373	0.015564	-0.014648	0.09201	0.28397	-0.047455	-0.03891	-0.032043	0.011749	-0.088348	0.14725	0.019379	-0.00412	-0.051422	-0.18158	0.23651	-0.004883	0.004272
29.628	0.023041	0.046387	-0.032349	0.007019	-0.001526	-0.051575	-0.071716	0.001221	0.1358	0.0177	-0.02533	0.002899	0.018158	-0.12726	0.18906	0.027466	0.004272	0.15106	0.56	-0.12131	-0.10956	0.026398	-0.005798	-0.002441	0.3772	-0.011292	-0.02533	-0.003967	-0.14725	0.31128	-0.004425	0.001526
29.629	0.012054	0.10162	-0.037384	-0.013733	0.001221	-0.046234	-0.081329	0.009308	0.1149	0.007935	-0.05661	0.002747	0.011139	-0.061951	0.12116	0.030823	-0.019684	0.20798	0.61218	-0.11795	-0.044861	0.13962	-0.16876	0.036011	0.20737	-0.030823	-0.029755	0.014343	-0.26535	0.018616	-0.001221	0.011597
29.63	0.012054	0.11566	-0.028687	-0.003204	0.002747	-0.081635	-0.079651	0.002899	0.11902	0.002747	-0.003662	0.006409	0.022583	-0.065613	0.10559	0.037079	-0.043488	0.16525	0.11581	-0.056763	0.037842	0.16953	-0.14236	0.097504	0.074768	0.029602	-0.003815	0.045013	-0.29221	-0.19394	-0.003967	0.004272
29.631	0.020752	0.10666	-0.029449	0.010834	-0.00351	-0.070801	-0.08194	0.010071	0.11307	-0.003204	0.014191	0.005646	-0.012054	-0.051117	0.096741	0.024109	-0.030518	0.12436	-0.27557	0.028839	0.001678	0.072327	-0.11673	0.17487	0.10452	0.008392	0.034332	-0.10422	-0.38208	0.26657	-0.002747	-0.005493
29.632	0.017242	0.095825	-0.011139	0.008698	-0.002136	-0.060272	-0.074158	0.011749	0.11841	0.009003	0.034332	0.009766	-0.012665	-0.053864	0.021057	0.017853	-0.018311	0.13641	-0.34836	0.031281	-0.027924	0.038147	-0.12405	0.28351	0.16113	-0.10117	0.1033	-0.31754	-0.44937	0.32044	-0.00061	-0.009003
29.633	0.02182	0.10407	-0.014191	0.01358	-0.0177	-0.070038	-0.10513	0.005646	0.11581	0	0.03952	0.007019	0.00412	-0.020447	-0.054779	0.024567	-0.02533	0.16251	-0.52338	-0.049744	-0.012054	0.075531	-0.1149	0.22766	0.14297	-0.08606	0.09552	0.14557	-0.12741	0.42465	-0.002899	-0.006561
29.634	0.023956	0.071259	0.003967	0.00946	-0.009918	-0.06073	-0.10132	0.005035	0.11444	-0.021515	-0.009613	-0.001373	0.039825	-0.009766	-0.089722	0.018311	-0.015564	0.15167	-0.55969	-0.090332	-0.032196	0.056763	-0.072021	0.10101	0.12985	0.01709	0.064087	0.067596	0.44983	0.14801	-0.000153	-0.009613
29.635	0.028076	0.028839	-0.011292	0.016785	-0.014191	-0.046082	-0.10635	0.008698	0.10407	-0.037231	-0.060272	0.003815	0.045013	-0.023499	-0.060577	0.012512	0.010529	0.11993	-0.33951	-0.08667	-0.055084	0.026703	-0.007477	0.030823	0.096283	-0.021362	-0.003052	0.056	0.2301	-0.085907	-0.003052	-0.007782
29.636	0.020447	0.041046	-0.016785	0.01709	-0.014496	-0.040741	-0.11704	0.006866	0.10605	-0.054016	0.001831	0	0.003662	-0.011444	-0.041046	0.022736	-0.002747	0.16266	-0.15015	-0.02533	-0.03067	0.040283	-0.18707	-0.13473	0.079041	0.00473	0.00061	0.095062	0.055084	-0.057983	0.000916	-0.008698
29.637	0.01709	0.03067	-0.028687	0.007782	-0.010986	-0.039978	-0.094452	0.005188	0.097351	-0.041504	0.039825	0.004578	0.009613	-0.020752	0.010834	0.014954	-0.013275	0.19012	-0.10986	-0.076141	-0.029297	0.086517	-0.27359	-0.13138	0.11475	0.023499	-0.012817	0.005341	0.27557	-0.073395	-0.003662	-0.004883
29.638	0.018768	0.03006	-0.02655	0.002136	-0.016174	-0.050354	-0.097504	0.003815	0.10346	-0.031433	0.028076	0.009766	0.045166	-0.012817	0.054169	0.016937	-0.024261	0.25177	-0.004425	-0.12054	-0.081635	0.10101	-0.19898	-0.036926	0.1471	0.002136	0.049744	0.013733	0.36209	-0.23682	-0.001526	-0.000458
29.639	0.018616	0.000153	-0.030975	0.00946	-0.014038	-0.04364	-0.11459	0.006866	0.09613	-0.017242	0.053406	0.003204	0.031281	-0.034485	0.0914	0.027008	-0.00946	0.21347	0.092926	-0.12009	-0.061951	0.066833	0.032959	-0.10132	0.089111	-0.034332	0.1741	0.00473	-0.36041	-0.31754	-0.004425	-0.004578
